<svg width="1653" height="993" xmlns="http://www.w3.org/2000/svg" xmlns:xlink="http://www.w3.org/1999/xlink" xml:space="preserve" overflow="hidden"><defs><clipPath id="clip0"><rect x="1671" y="1856" width="1653" height="993"/></clipPath></defs><g clip-path="url(#clip0)" transform="translate(-1671 -1856)"><rect x="1672" y="1857" width="1650" height="990" fill="#FFFFFF"/><g><path d="M1855.5 2609.59 3239.5 2609.59M1855.5 2519.58 3239.5 2519.58M1855.5 2429.58 3239.5 2429.58M1855.5 2340.58 3239.5 2340.58M1855.5 2250.57 3239.5 2250.57M1855.5 2160.57 3239.5 2160.57M1855.5 2071.57 3239.5 2071.57M1855.5 1981.5 3239.5 1981.5" stroke="#D9D9D9" stroke-width="3.4375" stroke-linejoin="round" stroke-miterlimit="10" fill="none"/></g><g><path d="M2132.57 1981.5 2132.57 2699.5M2409.58 1981.5 2409.58 2699.5M2686.59 1981.5 2686.59 2699.5M2962.6 1981.5 2962.6 2699.5M3239.5 1981.5 3239.5 2699.5" stroke="#D9D9D9" stroke-width="3.4375" stroke-linejoin="round" stroke-miterlimit="10" fill="none"/></g><g><path d="M0 0 0.000360892 718" stroke="#BFBFBF" stroke-width="3.4375" stroke-linejoin="round" stroke-miterlimit="10" fill="none" fill-rule="evenodd" transform="matrix(1 0 0 -1 1855.5 2699.5)"/></g><g><path d="M1855.5 2699.5 3239.5 2699.5" stroke="#BFBFBF" stroke-width="3.4375" stroke-linejoin="round" stroke-miterlimit="10" fill="none" fill-rule="evenodd"/></g><g><path d="M2710.07 2268.83C2710.07 2274.9 2705.14 2279.83 2699.07 2279.83 2692.99 2279.83 2688.07 2274.9 2688.07 2268.83 2688.07 2262.75 2692.99 2257.83 2699.07 2257.83 2705.14 2257.83 2710.07 2262.75 2710.07 2268.83Z" stroke="#156082" stroke-width="3.4375" stroke-linejoin="round" stroke-miterlimit="10" fill="#156082"/><path d="M2392.07 2286.83C2392.07 2292.9 2387.14 2297.83 2381.07 2297.83 2374.99 2297.83 2370.07 2292.9 2370.07 2286.83 2370.07 2280.75 2374.99 2275.83 2381.07 2275.83 2387.14 2275.83 2392.07 2280.75 2392.07 2286.83Z" stroke="#156082" stroke-width="3.4375" stroke-linejoin="round" stroke-miterlimit="10" fill="#156082"/><path d="M2295.07 2322.83C2295.07 2328.9 2290.14 2333.83 2284.07 2333.83 2277.99 2333.83 2273.07 2328.9 2273.07 2322.83 2273.07 2316.75 2277.99 2311.83 2284.07 2311.83 2290.14 2311.83 2295.07 2316.75 2295.07 2322.83Z" stroke="#156082" stroke-width="3.4375" stroke-linejoin="round" stroke-miterlimit="10" fill="#156082"/><path d="M2295.07 2322.83C2295.07 2328.9 2290.14 2333.83 2284.07 2333.83 2277.99 2333.83 2273.07 2328.9 2273.07 2322.83 2273.07 2316.75 2277.99 2311.83 2284.07 2311.83 2290.14 2311.83 2295.07 2316.75 2295.07 2322.83Z" stroke="#156082" stroke-width="3.4375" stroke-linejoin="round" stroke-miterlimit="10" fill="#156082"/><path d="M2337.07 2196.83C2337.07 2202.9 2332.14 2207.83 2326.07 2207.83 2319.99 2207.83 2315.07 2202.9 2315.07 2196.83 2315.07 2190.75 2319.99 2185.83 2326.07 2185.83 2332.14 2185.83 2337.07 2190.75 2337.07 2196.83Z" stroke="#156082" stroke-width="3.4375" stroke-linejoin="round" stroke-miterlimit="10" fill="#156082"/><path d="M2032.07 2447.83C2032.07 2453.9 2027.14 2458.83 2021.07 2458.83 2014.99 2458.83 2010.07 2453.9 2010.07 2447.83 2010.07 2441.75 2014.99 2436.83 2021.07 2436.83 2027.14 2436.83 2032.07 2441.75 2032.07 2447.83Z" stroke="#156082" stroke-width="3.4375" stroke-linejoin="round" stroke-miterlimit="10" fill="#156082"/><path d="M2143.07 2358.83C2143.07 2364.9 2138.14 2369.83 2132.07 2369.83 2125.99 2369.83 2121.07 2364.9 2121.07 2358.83 2121.07 2352.75 2125.99 2347.83 2132.07 2347.83 2138.14 2347.83 2143.07 2352.75 2143.07 2358.83Z" stroke="#156082" stroke-width="3.4375" stroke-linejoin="round" stroke-miterlimit="10" fill="#156082"/><path d="M2198.07 2286.83C2198.07 2292.9 2193.14 2297.83 2187.07 2297.83 2180.99 2297.83 2176.07 2292.9 2176.07 2286.83 2176.07 2280.75 2180.99 2275.83 2187.07 2275.83 2193.14 2275.83 2198.07 2280.75 2198.07 2286.83Z" stroke="#156082" stroke-width="3.4375" stroke-linejoin="round" stroke-miterlimit="10" fill="#156082"/><path d="M2060.07 2430.83C2060.07 2436.9 2055.14 2441.83 2049.07 2441.83 2042.99 2441.83 2038.07 2436.9 2038.07 2430.83 2038.07 2424.75 2042.99 2419.83 2049.07 2419.83 2055.14 2419.83 2060.07 2424.75 2060.07 2430.83Z" stroke="#156082" stroke-width="3.4375" stroke-linejoin="round" stroke-miterlimit="10" fill="#156082"/><path d="M2129.07 2358.83C2129.07 2364.9 2124.14 2369.83 2118.07 2369.83 2111.99 2369.83 2107.07 2364.9 2107.07 2358.83 2107.07 2352.75 2111.99 2347.83 2118.07 2347.83 2124.14 2347.83 2129.07 2352.75 2129.07 2358.83Z" stroke="#156082" stroke-width="3.4375" stroke-linejoin="round" stroke-miterlimit="10" fill="#156082"/><path d="M2572.07 2107.83C2572.07 2113.9 2567.14 2118.83 2561.07 2118.83 2554.99 2118.83 2550.07 2113.9 2550.07 2107.83 2550.07 2101.75 2554.99 2096.83 2561.07 2096.83 2567.14 2096.83 2572.07 2101.75 2572.07 2107.83Z" stroke="#156082" stroke-width="3.4375" stroke-linejoin="round" stroke-miterlimit="10" fill="#156082"/><path d="M3001.07 2017.83C3001.07 2023.9 2996.14 2028.83 2990.07 2028.83 2983.99 2028.83 2979.07 2023.9 2979.07 2017.83 2979.07 2011.75 2983.99 2006.83 2990.07 2006.83 2996.14 2006.83 3001.07 2011.75 3001.07 2017.83Z" stroke="#156082" stroke-width="3.4375" stroke-linejoin="round" stroke-miterlimit="10" fill="#156082"/><path d="M2766.07 2071.83C2766.07 2077.9 2761.14 2082.83 2755.07 2082.83 2748.99 2082.83 2744.07 2077.9 2744.07 2071.83 2744.07 2065.75 2748.99 2060.83 2755.07 2060.83 2761.14 2060.83 2766.07 2065.75 2766.07 2071.83Z" stroke="#156082" stroke-width="3.4375" stroke-linejoin="round" stroke-miterlimit="10" fill="#156082"/></g><g><path d="M2021.5 2462.5 2023.57 2459.58 2026.57 2456.58 2028.57 2453.58 2031.57 2450.58 2033.57 2447.58 2036.57 2445.58 2038.57 2442.58 2040.57 2439.58 2043.57 2437.58 2045.57 2434.58 2048.57 2432.58 2050.57 2429.58 2052.57 2427.58 2055.57 2424.58 2057.57 2422.58 2060.57 2419.58 2062.57 2417.58 2064.57 2415.58 2067.57 2412.58 2069.57 2410.58 2072.57 2408.58 2074.57 2406.58 2077.57 2404.58 2079.57 2401.58 2081.57 2399.58 2084.57 2397.58 2086.57 2395.58 2089.57 2393.58 2091.57 2391.58 2093.57 2389.58 2096.57 2387.58 2098.57 2385.58 2101.57 2383.58 2103.57 2381.58 2105.57 2379.58 2108.57 2377.58 2110.57 2375.58 2113.57 2373.58 2115.57 2371.58 2117.57 2369.58 2120.57 2368.58 2122.57 2366.58 2125.57 2364.58 2127.57 2362.58 2130.57 2360.58 2132.57 2359.58 2134.57 2357.58 2137.57 2355.58 2139.57 2353.58 2142.57 2352.58 2144.57 2350.58 2146.57 2348.58 2149.57 2347.58 2151.57 2345.58 2154.57 2343.58 2156.57 2342.58 2158.57 2340.58 2161.57 2339.58 2163.57 2337.58 2166.57 2336.58 2168.57 2334.58 2171.57 2332.58 2173.57 2331.58 2175.57 2329.58 2178.57 2328.58 2180.57 2326.58 2183.57 2325.58 2185.57 2323.58 2187.57 2322.58 2190.57 2320.58 2192.57 2319.58 2195.57 2318.58 2197.57 2316.58 2199.57 2315.58 2202.57 2313.58 2204.57 2312.58 2207.57 2311.58 2209.57 2309.58 2211.57 2308.58 2214.57 2306.58 2216.57 2305.58 2219.57 2304.58 2221.57 2302.58 2224.57 2301.58 2226.57 2300.58 2228.57 2299.58 2231.57 2297.58 2233.57 2296.58 2236.57 2295.58 2238.57 2293.58 2240.57 2292.58 2243.57 2291.58 2245.57 2290.58 2248.57 2288.58 2250.57 2287.58 2252.57 2286.58 2255.57 2285.58 2257.57 2284.57 2260.57 2282.57 2262.57 2281.57 2265.57 2280.57 2267.57 2279.57 2269.57 2278.57 2272.57 2276.57 2274.57 2275.57 2277.57 2274.57 2279.57 2273.57 2281.57 2272.57 2284.58 2271.57 2286.58 2270.57 2289.58 2268.57 2291.58 2267.57 2293.58 2266.57 2296.58 2265.57 2298.58 2264.57 2301.58 2263.57 2303.58 2262.57 2305.58 2261.57 2308.58 2260.57 2310.58 2259.57 2313.58 2258.57 2315.58 2257.57 2318.58 2255.57 2320.58 2254.57 2322.58 2253.57 2325.58 2252.57 2327.58 2251.57 2330.58 2250.57 2332.58 2249.57 2334.58 2248.57 2337.58 2247.57 2339.58 2246.57 2342.58 2245.57 2344.58 2244.57 2346.58 2243.57 2349.58 2242.57 2351.58 2241.57 2354.58 2240.57 2356.58 2239.57 2359.58 2238.57 2361.58 2237.57 2363.58 2236.57 2366.58 2236.57 2368.58 2235.57 2371.58 2234.57 2373.58 2233.57 2375.58 2232.57 2378.58 2231.57 2380.58 2230.57 2383.58 2229.57 2385.58 2228.57 2387.58 2227.57 2390.58 2226.57 2392.58 2225.57 2395.58 2224.57 2397.58 2224.57 2399.58 2223.57 2402.58 2222.57 2404.58 2221.57 2407.58 2220.57 2409.58 2219.57 2412.58 2218.57 2414.58 2217.57 2416.58 2217.57 2419.58 2216.57 2421.58 2215.57 2424.58 2214.57 2426.58 2213.57 2428.58 2212.57 2431.58 2211.57 2433.58 2211.57 2436.58 2210.57 2438.58 2209.57 2440.58 2208.57 2443.58 2207.57 2445.58 2206.57 2448.58 2206.57 2450.58 2205.57 2453.58 2204.57 2455.58 2203.57 2457.58 2202.57 2460.58 2202.57 2462.58 2201.57 2465.58 2200.57 2467.58 2199.57 2469.58 2198.57 2472.58 2198.57 2474.58 2197.57 2477.58 2196.57 2479.58 2195.57 2481.58 2194.57 2484.58 2194.57 2486.58 2193.57 2489.58 2192.57 2491.58 2191.57 2493.58 2191.57 2496.58 2190.57 2498.58 2189.57 2501.58 2188.57 2503.58 2188.57 2506.58 2187.57 2508.58 2186.57 2510.58 2185.57 2513.58 2185.57 2515.58 2184.57 2518.58 2183.57 2520.58 2182.57 2522.58 2182.57 2525.58 2181.57 2527.58 2180.57 2530.58 2180.57 2532.58 2179.57 2534.58 2178.57 2537.58 2177.57 2539.58 2177.57 2542.58 2176.57 2544.58 2175.57 2547.58 2175.57 2549.58 2174.57 2551.58 2173.57 2554.58 2172.57 2556.58 2172.57 2559.58 2171.57 2561.58 2170.57 2563.58 2170.57 2566.58 2169.57 2568.58 2168.57 2571.58 2168.57 2573.58 2167.57 2575.58 2166.57 2578.58 2166.57 2580.58 2165.57 2583.58 2164.57 2585.58 2164.57 2588.59 2163.57 2590.59 2162.57 2592.59 2162.57 2595.59 2161.57 2597.59 2160.57 2600.59 2160.57 2602.59 2159.57 2604.59 2158.57 2607.59 2158.57 2609.59 2157.57 2612.59 2156.57 2614.59 2156.57 2616.59 2155.57 2619.59 2155.57 2621.59 2154.57 2624.59 2153.57 2626.59 2153.57 2628.59 2152.57 2631.59 2151.57 2633.59 2151.57 2636.59 2150.57 2638.59 2150.57 2641.59 2149.57 2643.59 2148.57 2645.59 2148.57 2648.59 2147.57 2650.59 2146.57 2653.59 2146.57 2655.59 2145.57 2657.59 2145.57 2660.59 2144.57 2662.59 2143.57 2665.59 2143.57 2667.59 2142.57 2669.59 2142.57 2672.59 2141.57 2674.59 2140.57 2677.59 2140.57 2679.59 2139.57 2682.59 2139.57 2684.59 2138.57 2686.59 2138.57 2689.59 2137.57 2691.59 2136.57 2694.59 2136.57 2696.59 2135.57 2698.59 2135.57 2701.59 2134.57 2703.59 2134.57 2706.59 2133.57 2708.59 2132.57 2710.59 2132.57 2713.59 2131.57 2715.59 2131.57 2718.59 2130.57 2720.59 2130.57 2722.59 2129.57 2725.59 2128.57 2727.59 2128.57 2730.59 2127.57 2732.59 2127.57 2735.59 2126.57 2737.59 2126.57 2739.59 2125.57 2742.59 2125.57 2744.59 2124.57 2747.59 2123.57 2749.59 2123.57 2751.59 2122.57 2754.59 2122.57 2756.59 2121.57 2759.59 2121.57 2761.59 2120.57 2763.59 2120.57 2766.59 2119.57 2768.59 2119.57 2771.59 2118.57 2773.59 2118.57 2776.59 2117.57 2778.59 2117.57 2780.59 2116.57 2783.59 2115.57 2785.59 2115.57 2788.59 2114.57 2790.59 2114.57 2792.59 2113.57 2795.59 2113.57 2797.59 2112.57 2800.59 2112.57 2802.59 2111.57 2804.59 2111.57 2807.59 2110.57 2809.59 2110.57 2812.59 2109.57 2814.59 2109.57 2816.59 2108.57 2819.59 2108.57 2821.59 2107.57 2824.59 2107.57 2826.59 2106.57 2829.59 2106.57 2831.59 2105.57 2833.59 2105.57 2836.59 2104.57 2838.59 2104.57 2841.59 2103.57 2843.59 2103.57 2845.59 2102.57 2848.59 2102.57 2850.59 2101.57 2853.59 2101.57 2855.59 2100.57 2857.59 2100.57 2860.59 2099.57 2862.59 2099.57 2865.59 2098.57 2867.59 2098.57 2870.59 2097.57 2872.59 2097.57 2874.59 2097.57 2877.59 2096.57 2879.59 2096.57 2882.59 2095.57 2884.59 2095.57 2886.59 2094.57 2889.59 2094.57 2891.6 2093.57 2894.6 2093.57 2896.6 2092.57 2898.6 2092.57 2901.6 2091.57 2903.6 2091.57 2906.6 2090.57 2908.6 2090.57 2910.6 2090.57 2913.6 2089.57 2915.6 2089.57 2918.6 2088.57 2920.6 2088.57 2923.6 2087.57 2925.6 2087.57 2927.6 2086.57 2930.6 2086.57 2932.6 2085.57 2935.6 2085.57 2937.6 2085.57 2939.6 2084.57 2942.6 2084.57 2944.6 2083.57 2947.6 2083.57 2949.6 2082.57 2951.6 2082.57 2954.6 2081.57 2956.6 2081.57 2959.6 2081.57 2961.6 2080.57 2964.6 2080.57 2966.6 2079.57 2968.6 2079.57 2971.6 2078.57 2973.6 2078.57 2976.6 2077.57 2978.6 2077.57 2980.6 2077.57 2983.6 2076.57 2985.6 2076.57 2988.6 2075.57 2990.5 2075.5" stroke="#156082" stroke-width="6.875" stroke-linecap="round" stroke-linejoin="round" stroke-miterlimit="10" stroke-dasharray="0 13.75" fill="none"/></g><g><text fill="#595959" font-family="Aptos Narrow,Aptos Narrow_MSFontService,sans-serif" font-weight="400" font-stretch="semi-condensed" font-size="41" transform="matrix(1 0 0 1 2679.34 2550)">y = 11.211ln(x) </text></g><g><text fill="#595959" font-family="Aptos Narrow,Aptos Narrow_MSFontService,sans-serif" font-weight="400" font-stretch="semi-condensed" font-size="41" transform="matrix(1 0 0 1 2928.47 2550)">-</text></g><g><text fill="#595959" font-family="Aptos Narrow,Aptos Narrow_MSFontService,sans-serif" font-weight="400" font-stretch="semi-condensed" font-size="41" transform="matrix(1 0 0 1 2948.82 2550)">14.642</text></g><g><text fill="#595959" font-family="Aptos Narrow,Aptos Narrow_MSFontService,sans-serif" font-weight="400" font-stretch="semi-condensed" font-size="41" transform="matrix(1 0 0 1 2777.68 2600)">R² = 0.8081</text></g><g><text fill="#595959" font-family="Aptos Narrow,Aptos Narrow_MSFontService,sans-serif" font-weight="400" font-stretch="semi-condensed" font-size="41" transform="matrix(1 0 0 1 1796.53 2711)">0</text></g><g><text fill="#595959" font-family="Aptos Narrow,Aptos Narrow_MSFontService,sans-serif" font-weight="400" font-stretch="semi-condensed" font-size="41" transform="matrix(1 0 0 1 1796.53 2621)">5</text></g><g><text fill="#595959" font-family="Aptos Narrow,Aptos Narrow_MSFontService,sans-serif" font-weight="400" font-stretch="semi-condensed" font-size="41" transform="matrix(1 0 0 1 1775.63 2531)">10</text></g><g><text fill="#595959" font-family="Aptos Narrow,Aptos Narrow_MSFontService,sans-serif" font-weight="400" font-stretch="semi-condensed" font-size="41" transform="matrix(1 0 0 1 1775.63 2442)">15</text></g><g><text fill="#595959" font-family="Aptos Narrow,Aptos Narrow_MSFontService,sans-serif" font-weight="400" font-stretch="semi-condensed" font-size="41" transform="matrix(1 0 0 1 1775.63 2352)">20</text></g><g><text fill="#595959" font-family="Aptos Narrow,Aptos Narrow_MSFontService,sans-serif" font-weight="400" font-stretch="semi-condensed" font-size="41" transform="matrix(1 0 0 1 1775.63 2262)">25</text></g><g><text fill="#595959" font-family="Aptos Narrow,Aptos Narrow_MSFontService,sans-serif" font-weight="400" font-stretch="semi-condensed" font-size="41" transform="matrix(1 0 0 1 1775.63 2172)">30</text></g><g><text fill="#595959" font-family="Aptos Narrow,Aptos Narrow_MSFontService,sans-serif" font-weight="400" font-stretch="semi-condensed" font-size="41" transform="matrix(1 0 0 1 1775.63 2083)">35</text></g><g><text fill="#595959" font-family="Aptos Narrow,Aptos Narrow_MSFontService,sans-serif" font-weight="400" font-stretch="semi-condensed" font-size="41" transform="matrix(1 0 0 1 1775.63 1993)">40</text></g><g><text fill="#595959" font-family="Aptos Narrow,Aptos Narrow_MSFontService,sans-serif" font-weight="400" font-stretch="semi-condensed" font-size="41" transform="matrix(1 0 0 1 1845.07 2764)">0</text></g><g><text fill="#595959" font-family="Aptos Narrow,Aptos Narrow_MSFontService,sans-serif" font-weight="400" font-stretch="semi-condensed" font-size="41" transform="matrix(1 0 0 1 2111.47 2764)">20</text></g><g><text fill="#595959" font-family="Aptos Narrow,Aptos Narrow_MSFontService,sans-serif" font-weight="400" font-stretch="semi-condensed" font-size="41" transform="matrix(1 0 0 1 2388.33 2764)">40</text></g><g><text fill="#595959" font-family="Aptos Narrow,Aptos Narrow_MSFontService,sans-serif" font-weight="400" font-stretch="semi-condensed" font-size="41" transform="matrix(1 0 0 1 2665.19 2764)">60</text></g><g><text fill="#595959" font-family="Aptos Narrow,Aptos Narrow_MSFontService,sans-serif" font-weight="400" font-stretch="semi-condensed" font-size="41" transform="matrix(1 0 0 1 2942.04 2764)">80</text></g><g><text fill="#595959" font-family="Aptos Narrow,Aptos Narrow_MSFontService,sans-serif" font-weight="400" font-stretch="semi-condensed" font-size="41" transform="matrix(1 0 0 1 3208.45 2764)">100</text></g><g><text fill="#595959" font-family="Aptos Narrow,Aptos Narrow_MSFontService,sans-serif" font-weight="400" font-stretch="semi-condensed" font-size="46" transform="matrix(6.12323e-17 -1 1 6.12323e-17 1739.77 2433)">Altezza (m)</text></g><g><text fill="#595959" font-family="Aptos Narrow,Aptos Narrow_MSFontService,sans-serif" font-weight="400" font-stretch="semi-condensed" font-size="46" transform="matrix(1 0 0 1 2470.11 2823)">DBH (cm)</text></g><g><text fill="#595959" font-family="Aptos Narrow,Aptos Narrow_MSFontService,sans-serif" font-weight="400" font-stretch="semi-condensed" font-size="64" transform="matrix(1 0 0 1 2130.59 1938)">Curva ipsometrica (NO VAIA)</text></g><rect x="1672.5" y="1857.5" width="1650" height="990" stroke="#D9D9D9" stroke-width="3.4375" stroke-linejoin="round" stroke-miterlimit="10" fill="none"/></g></svg>